<?xml version="1.0" encoding="UTF-8"?>
<svg width="870px" height="203px" viewBox="0 0 870 203" version="1.1" xmlns="http://www.w3.org/2000/svg" xmlns:xlink="http://www.w3.org/1999/xlink">
    <!-- Generator: Sketch 54.1 (76490) - https://sketchapp.com -->
    <title>Flamingo</title>
    <desc>Created with Sketch.</desc>
    <g id="Page-1" stroke="none" stroke-width="1" fill="none" fill-rule="evenodd">
        <g id="720p-copy-4" transform="translate(-205.000000, -264.000000)" fill="#FF206E" fill-rule="nonzero">
            <path d="M303.6,355.6 L250.4,355.6 L241.2,408.4 L205,408.4 L230.4,264.4 L330.8,264.4 L325.2,295.6 L260.8,295.6 L255.8,324.4 L309,324.4 L303.6,355.6 Z M361.2,377.6 C361.2,381.066684 362.966649,382.8 366.5,382.8 C370.033351,382.8 372.999988,382.13334 375.4,380.8 L374.4,403.4 C367.999968,408.600026 360.80004,411.2 352.8,411.2 C340.666606,411.2 332.800018,408.400028 329.2,402.8 C326.933322,399.199982 325.8,395.266688 325.8,391 C325.8,386.733312 326.066664,383.000016 326.6,379.8 L347.02684,264.35 L381.02812,264.347855 L361.4,375.2 C361.266666,376.000004 361.2,376.799996 361.2,377.6 Z M479.6,377.6 C479.6,381.066684 481.366649,382.8 484.9,382.8 C488.433351,382.8 491.399988,382.13334 493.8,380.8 L492.8,403.4 C486.399968,408.600026 479.20004,411.2 471.2,411.2 C456.53326,411.2 448.400008,405.86672 446.8,395.2 C440.1333,405.86672 430.333398,411.2 417.4,411.2 C395.533224,411.2 384.6,401.800094 384.6,383 C384.6,379.799984 384.93333,376.266686 385.6,372.4 L389.8,349 C391.933344,336.99994 396.833295,327.433369 404.5,320.3 C412.166705,313.166631 422.166605,309.6 434.5,309.6 C446.833395,309.6 455.199978,312.466638 459.6,318.2 L460.6,312.2 L491,312.2 L479.8,375.2 C479.666666,376.000004 479.6,376.799996 479.6,377.6 Z M420.4,368 C420.133332,369.200006 420,370.866656 420,373 C420,375.133344 420.99999,377.233323 423,379.3 C425.00001,381.366677 428.366643,382.4 433.1,382.4 C437.833357,382.4 441.933316,380.533352 445.4,376.8 L451.4,343.2 C449.933326,339.86665 446.466694,338.2 441,338.2 C430.733282,338.2 424.733342,343.133284 423,353 L420.4,368 Z M669.8,382.8 C672.866682,382.8 675.599988,382.13334 678,380.8 L677,403.4 C670.733302,408.600026 663.60004,411.2 655.6,411.2 C637.466576,411.2 628.4,403.600076 628.4,388.4 C628.4,385.73332 628.666664,382.866682 629.2,379.8 L633.4,355.2 C633.800002,352.799988 634,350.400012 634,348 C634,341.599968 630.500035,338.4 623.5,338.4 C616.499965,338.4 611.00002,341.133306 607,346.6 L596.2,408.4 L562.2,408.4 L571.6,355.2 C572.000002,352.799988 572.2,350.400012 572.2,348 C572.2,341.599968 568.600036,338.4 561.4,338.4 C555.666638,338.4 550.733354,340.599978 546.6,345 L535.4,408.4 L501.4,408.4 L518.4,312.2 L550,312.2 L547.8,324.2 C555.80004,314.333284 565.933272,309.4 578.2,309.4 C595.53342,309.4 605.399988,315.133276 607.8,326.6 C615.80004,315.133276 626.499933,309.4 639.9,309.4 C653.300067,309.4 661.99998,312.39997 666,318.4 C668.66668,322.533354 670,327.066642 670,332 C670,336.933358 669.66667,341.39998 669,345.4 L664,375.2 C663.866666,376.000004 663.8,376.73333 663.8,377.4 C663.8,381.000018 665.79998,382.8 669.8,382.8 Z M730,382.8 C733.066682,382.8 735.799988,382.13334 738.2,380.8 L737.2,403.4 C730.933302,408.600026 723.80004,411.2 715.8,411.2 C703.666606,411.2 695.800018,408.400028 692.2,402.8 C689.799988,399.066648 688.6,395.100021 688.6,390.9 C688.6,386.699979 688.866664,383.000016 689.4,379.8 L701.4,312.2 L735.4,312.2 L724.2,375.2 C724.066666,376.000004 724,376.73333 724,377.4 C724,381.000018 725.99998,382.8 730,382.8 Z M812.8,347 C812.8,341.266638 810.033361,338.4 804.5,338.4 C798.966639,338.4 794.400018,340.466646 790.8,344.6 L779.6,408.4 L745.6,408.4 L762.6,312.2 L794.2,312.2 L792,324 C799.866706,314.266618 809.79994,309.4 821.8,309.4 C833.80006,309.4 841.599982,312.333304 845.2,318.2 C847.466678,321.933352 848.6,326.199976 848.6,331 C848.6,335.800024 848.26667,340.266646 847.6,344.4 L842.2,375.2 C842.066666,376.000004 842,376.73333 842,377.4 C842,381.000018 843.99998,382.8 848,382.8 C851.066682,382.8 853.799988,382.13334 856.2,380.8 L855.2,403.4 C848.933302,408.600026 841.80004,411.2 833.8,411.2 C815.666576,411.2 806.6,403.600076 806.6,388.4 C806.6,385.73332 806.866664,382.866682 807.4,379.8 L812.2,353.2 C812.600002,350.799988 812.8,348.733342 812.8,347 Z M954,411.6 C951.066652,428.533418 944.366719,441.933284 933.9,451.8 C923.433281,461.666716 911.466734,466.6 898,466.6 C884.533266,466.6 874.833363,464.133358 868.9,459.2 C862.966637,454.266642 860,447.80004 860,439.8 C860,428.066608 867.466592,417.86671 882.4,409.2 C871.06661,405.599982 865.4,397.000068 865.4,383.4 C865.4,380.06665 865.73333,376.40002 866.4,372.4 L870.4,349 C872.533344,336.99994 877.466628,327.433369 885.2,320.3 C892.933372,313.166631 902.966605,309.6 915.3,309.6 C927.633395,309.6 936.066644,312.59997 940.6,318.6 L941.8,312.2 L971.6,312.2 L954,411.6 Z M901.2,368 C900.933332,369.200006 900.8,370.866656 900.8,373 C900.8,375.133344 901.79999,377.233323 903.8,379.3 C905.80001,381.366677 909.166643,382.4 913.9,382.4 C918.633357,382.4 922.733316,380.533352 926.2,376.8 L932.2,343.2 C930.333324,339.86665 926.800026,338.2 921.6,338.2 C916.399974,338.2 912.333348,339.53332 909.4,342.2 C906.466652,344.86668 904.600004,348.466644 903.8,353 L901.2,368 Z M902.6,438 C911.26671,438 916.93332,430.133412 919.6,414.4 L921.6,402.8 C903.066574,411.46671 893.8,420.199956 893.8,429 C893.8,431.66668 894.566659,433.833325 896.1,435.5 C897.633341,437.166675 899.799986,438 902.6,438 Z M1033.2,309.4 C1047.60007,309.4 1058.46663,312.533302 1065.8,318.8 C1071.53336,323.733358 1074.4,330.599956 1074.4,339.4 C1074.4,342.333348 1074.06667,345.533316 1073.4,349 L1069.2,372.4 C1066.66665,386.533404 1060.76671,396.533304 1051.5,402.4 C1042.23329,408.266696 1029.86674,411.2 1014.4,411.2 C998.933256,411.2 987.600036,408.266696 980.4,402.4 C975.06664,397.999978 972.4,391.400044 972.4,382.6 C972.4,379.533318 972.73333,376.133352 973.4,372.4 L977.6,349 C982.26669,322.599868 1000.79984,309.4 1033.2,309.4 Z M704,286.764179 C704,278.867622 705.758191,273.099521 709.274627,269.459701 C712.791062,265.819882 718.250709,264 725.653731,264 C736.017962,264 741.2,268.565128 741.2,277.695522 C741.2,285.468696 739.441809,291.144261 735.925373,294.722388 C732.408938,298.300515 726.8876,300.089552 719.361194,300.089552 C709.120347,300.089552 704,295.647806 704,286.764179 Z M1038.6,353 C1038.86667,351.66666 1039,349.966677 1039,347.9 C1039,345.833323 1038.13334,343.533346 1036.4,341 C1034.66666,338.466654 1031.63335,337.2 1027.3,337.2 C1022.96664,337.2 1019.33335,338.633319 1016.4,341.5 C1013.46665,344.366681 1011.6,348.199976 1010.8,353 L1008.2,368 C1007.93333,369.33334 1007.8,371.033323 1007.8,373.1 C1007.8,375.166677 1008.66666,377.399988 1010.4,379.8 C1012.13334,382.200012 1015.16665,383.4 1019.5,383.4 C1023.83335,383.4 1027.46665,381.900015 1030.4,378.9 C1033.33335,375.899985 1035.2,372.266688 1036,368 L1038.6,353 Z" id="Flamingo"></path>
        </g>
    </g>
</svg>