<?xml version="1.0" encoding="UTF-8"?>
<svg width="178px" height="280px" viewBox="0 0 178 280" version="1.1" xmlns="http://www.w3.org/2000/svg" xmlns:xlink="http://www.w3.org/1999/xlink">
    <!-- Generator: Sketch 54.1 (76490) - https://sketchapp.com -->
    <title>Group 2</title>
    <desc>Created with Sketch.</desc>
    <g id="Page-1" stroke="none" stroke-width="1" fill="none" fill-rule="evenodd">
        <g id="Artboard-3" transform="translate(-149.000000, -110.000000)" fill="#FFFFFF" fill-rule="nonzero">
            <g id="Group-2" transform="translate(149.000000, 110.000000)">
                <path d="M116.228306,191.383596 L116.228306,280 L99.9563431,280 L99.9563431,197.647059 L116.228306,191.383596 Z M20.2890701,196.023198 L0.530265446,205.302403 C0.530265446,205.302403 -8.76800584,128.748964 50.5084059,109.030655 C109.784841,89.3123447 145.815615,126.429163 145.815615,126.429163 C145.815615,126.429163 147.642027,114.830157 145.815615,102.071251 C143.491049,85.8326429 103.483872,58.7603314 107.460275,28.9975145 C109.784841,11.5990058 124.89452,0 143.491049,0 C160.925295,0 170.491814,10.1330539 176.034974,24.3579122 C184.170955,45.2361226 164.412144,74.2336371 164.412144,74.2336371 C164.412144,74.2336371 164.412144,46.3960232 151.62703,39.4366197 C138.841917,32.4772162 135.355068,22.038111 129.543653,20.8782104 C123.732237,19.7183099 122.008107,35.2349959 124.89452,42.9163215 C131.868219,61.4747307 166.73671,82.3529412 174.872691,109.030655 C180.693637,128.117514 173.710408,157.746479 173.710408,157.746479 L50.5084059,205.302403 L35.3987264,257.497929 C22.5803949,237.208948 19.0296435,223.879138 20.2890701,196.023198 Z" id="Combined-Shape"></path>
            </g>
        </g>
    </g>
</svg>